# xmcd CD database file
#
# Track frame offsets:
#	150
#	20708
#	39315
#	60167
#	83134
#
# Disc length: 1339 seconds
#
# Revision: 3
# Processed by: cddbd v1.5.1PL0 Copyright (c) Steve Scherf et al.
# Submitted via: CDex 1.51
#
DISCID=30053905
DTITLE=Nikola (Parov)World Orchestra - Karácsonynak éjszakáján - Magyar karácsony világsztárokkal
DYEAR=2003
DGENRE=World
TTITLE0=Itt van újra a Karácsony éjszaka
TTITLE1=Karácsonynak éjszakáján...
TTITLE2=Kicsi Jézus aludj el
TTITLE3=Szerelem, szerelem...
TTITLE4=Ünnepeljük a Karácsonyt!
EXTD=YEAR: 2003
EXTT0=
EXTT1=
EXTT2=
EXTT3=
EXTT4=
PLAYORDER=
